<svg width="12" height="13" viewBox="0 0 12 13" fill="none" xmlns="http://www.w3.org/2000/svg">
<path fill-rule="evenodd" clip-rule="evenodd" d="M5.77384 12.125C6.25283 12.125 6.64113 11.7367 6.64113 11.2577V7.31819H10.3762C10.8281 7.31819 11.1944 6.95188 11.1944 6.50001C11.1944 6.04814 10.8281 5.68182 10.3762 5.68182H6.64113V1.74229C6.64113 1.2633 6.25283 0.875 5.77384 0.875C5.29485 0.875 4.90655 1.2633 4.90655 1.74229V5.68182H1.17145C0.719584 5.68182 0.353271 6.04814 0.353271 6.50001C0.353271 6.95188 0.719584 7.31819 1.17145 7.31819H4.90655V11.2577C4.90655 11.7367 5.29485 12.125 5.77384 12.125Z" fill="black"/>
</svg>
